<?xml version="1.0" encoding="UTF-8" standalone="no"?><!DOCTYPE svg PUBLIC "-//W3C//DTD SVG 1.1//EN" "http://www.w3.org/Graphics/SVG/1.1/DTD/svg11.dtd"><svg width="100%" height="100%" viewBox="0 0 2134 2134" version="1.1" xmlns="http://www.w3.org/2000/svg" xmlns:xlink="http://www.w3.org/1999/xlink" xml:space="preserve" xmlns:serif="http://www.serif.com/" style="fill-rule:evenodd;clip-rule:evenodd;stroke-linecap:round;stroke-linejoin:round;stroke-miterlimit:10;"><g id="Layer-1" serif:id="Layer 1"></g><rect id="Artboard1" x="-0" y="0" width="2133.33" height="2133.33" style="fill:none;"/><path d="M1434.4,923.99c4.7,38.867 -3.466,74.279 -27.629,98.367c-54.437,54.27 -165.358,31.675 -247.75,-50.463c-82.392,-82.142 -105.054,-192.717 -50.617,-246.987c24.83,-24.75 61.609,-32.775 101.867,-27.196l84.613,-84.35c48.55,-48.404 127.266,-48.404 175.82,0.004l49.725,49.571c48.55,48.404 48.555,126.883 0.005,175.283l-86.034,85.771Zm-854.594,695.64l-67.846,67.638c-19.754,-4.229 -39.054,-11.288 -48.237,-20.442c-7.95,-7.925 -14.234,-23.696 -18.604,-40.504l70.7,-70.483l63.987,63.791Zm690.26,-404.368c-5.083,14.275 -14.758,26.475 -27.521,34.7c0,0 -404.462,341.15 -626.946,424.113c27.188,-28.558 35.775,-67.942 26.009,-103.617l313.225,-312.258c36.654,9.967 77.387,1.075 106.179,-27.625c31.325,-31.233 39.454,-76.629 24.854,-115.454l-81.708,81.458l-63.988,-63.792l81.613,-81.358c-38.888,-14.408 -84.275,-6.292 -115.529,24.863c-29.413,29.32 -38.088,71.075 -27.009,108.212l-311.558,310.6c-37.25,-11.042 -79.125,-2.4 -108.546,26.929c-4.087,4.075 -6.708,8.934 -10.008,13.454c68.837,-216.566 432.741,-645.091 432.741,-645.091c8.246,-12.721 20.484,-22.367 34.805,-27.438l70.966,-25.121c44.617,-15.795 91.554,16.959 91.946,64.159l0.713,85.583c0.316,38.021 31.554,68.554 69.687,68.113l78.863,-0.905c47.929,-0.554 81.758,46.634 65.72,91.659l-24.508,68.816Z" style="fill:#86ba81;"/><path d="M521.009,782.019l85.245,53.117l243.313,-79.675l120.287,104.887" style="fill:none;fill-rule:nonzero;stroke:#86ba81;stroke-width:54.17px;"/><path d="M1349.48,1607.95l-53.279,-84.988l79.921,-242.562l-105.212,-119.917" style="fill:none;fill-rule:nonzero;stroke:#86ba81;stroke-width:54.17px;"/><path d="M185.779,1389.74l126.096,15.933l202.462,-460.337l263.242,105.862" style="fill:none;fill-rule:nonzero;stroke:#86ba81;stroke-width:54.17px;"/><path d="M745.309,1947.55l-15.984,-125.708l461.754,-201.842l-106.187,-262.433" style="fill:none;fill-rule:nonzero;stroke:#86ba81;stroke-width:54.17px;"/><path d="M1116.39,185.779l71.038,123.937l-163.388,276.204l84.359,138.988" style="fill:none;fill-rule:nonzero;stroke:#86ba81;stroke-width:54.17px;"/><path d="M1947.55,1014.39l-124.316,-70.821l-277.054,162.888l-139.417,-84.1" style="fill:none;fill-rule:nonzero;stroke:#86ba81;stroke-width:54.17px;"/><path d="M1350.28,296.105c0,-0 102,104.404 75.859,321.32" style="fill:none;fill-rule:nonzero;stroke:#86ba81;stroke-width:54.17px;"/><path d="M1842.31,786.624c-0,-0 -104.725,-101.688 -322.309,-75.625" style="fill:none;fill-rule:nonzero;stroke:#86ba81;stroke-width:54.17px;"/></svg>