<?xml version="1.0" encoding="UTF-8" standalone="no"?><!DOCTYPE svg PUBLIC "-//W3C//DTD SVG 1.1//EN" "http://www.w3.org/Graphics/SVG/1.1/DTD/svg11.dtd"><svg width="100%" height="100%" viewBox="0 0 2134 2134" version="1.1" xmlns="http://www.w3.org/2000/svg" xmlns:xlink="http://www.w3.org/1999/xlink" xml:space="preserve" xmlns:serif="http://www.serif.com/" style="fill-rule:evenodd;clip-rule:evenodd;stroke-linecap:round;stroke-linejoin:round;stroke-miterlimit:10;"><g id="Layer-1" serif:id="Layer 1"><path d="M1975.73,2133.33l-1818.12,0c-87.045,0 -157.608,-70.562 -157.608,-157.608l-0,-1818.12c-0,-87.046 70.563,-157.608 157.608,-157.608l1818.12,-0c87.046,-0 157.608,70.562 157.608,157.608l0,1818.12c0,87.046 -70.562,157.608 -157.608,157.608" style="fill:#d99948;fill-rule:nonzero;"/><path d="M1434.4,923.99l86.033,-85.771c48.55,-48.4 48.546,-126.879 -0.004,-175.283l-49.725,-49.571c-48.554,-48.408 -127.271,-48.408 -175.821,-0.004l-84.612,84.35c-40.259,-5.579 -77.038,2.446 -101.867,27.196c-54.437,54.27 -31.775,164.845 50.617,246.987c82.391,82.138 193.312,104.733 247.75,50.463c24.162,-24.088 32.329,-59.5 27.629,-98.367" style="fill:#f2efeb;fill-rule:nonzero;"/><path d="M521.009,782.019l85.246,53.117l243.313,-79.675l120.287,104.887" style="fill:none;fill-rule:nonzero;stroke:#f2efeb;stroke-width:54.17px;"/><path d="M1349.48,1607.95l-53.279,-84.988l79.921,-242.562l-105.213,-119.917" style="fill:none;fill-rule:nonzero;stroke:#f2efeb;stroke-width:54.17px;"/><path d="M185.78,1389.74l126.095,15.933l202.463,-460.337l263.242,105.862" style="fill:none;fill-rule:nonzero;stroke:#f2efeb;stroke-width:54.17px;"/><path d="M745.309,1947.55l-15.983,-125.708l461.754,-201.842l-106.188,-262.433" style="fill:none;fill-rule:nonzero;stroke:#f2efeb;stroke-width:54.17px;"/><path d="M1116.39,185.779l71.037,123.937l-163.387,276.204l84.358,138.988" style="fill:none;fill-rule:nonzero;stroke:#f2efeb;stroke-width:54.17px;"/><path d="M1947.56,1014.39l-124.317,-70.821l-277.054,162.888l-139.417,-84.1" style="fill:none;fill-rule:nonzero;stroke:#f2efeb;stroke-width:54.17px;"/><path d="M1350.28,296.105c0,-0 102,104.404 75.858,321.32" style="fill:none;fill-rule:nonzero;stroke:#f2efeb;stroke-width:54.17px;"/><path d="M1842.31,786.624c0,-0 -104.725,-101.688 -322.308,-75.625" style="fill:none;fill-rule:nonzero;stroke:#f2efeb;stroke-width:54.17px;"/><path d="M579.804,1619.63l-63.988,-63.791l-70.7,70.483c4.371,16.808 10.654,32.579 18.604,40.504c9.184,9.154 28.484,16.213 48.238,20.442l67.846,-67.638Z" style="fill:#f2efeb;fill-rule:nonzero;"/><path d="M1270.06,1215.26l24.508,-68.816c16.038,-45.025 -17.792,-92.213 -65.721,-91.659l-78.862,0.905c-38.134,0.441 -69.371,-30.092 -69.688,-68.113l-0.712,-85.583c-0.392,-47.2 -47.329,-79.954 -91.946,-64.159l-70.967,25.121c-14.321,5.071 -26.558,14.717 -34.804,27.438c0,-0 -363.904,428.525 -432.742,645.092c3.3,-4.521 5.921,-9.38 10.009,-13.455c29.421,-29.329 71.296,-37.971 108.546,-26.929l311.558,-310.6c-11.079,-37.137 -2.404,-78.892 27.008,-108.212c31.254,-31.155 76.642,-39.271 115.529,-24.863l-81.612,81.358l63.987,63.792l81.709,-81.458c14.6,38.825 6.471,84.221 -24.854,115.454c-28.792,28.7 -69.525,37.592 -106.18,27.625l-313.225,312.258c9.767,35.675 1.18,75.059 -26.008,103.617c222.483,-82.962 626.946,-424.112 626.946,-424.112c12.762,-8.225 22.437,-20.425 27.521,-34.7" style="fill:#f2efeb;fill-rule:nonzero;"/></g></svg>