<?xml version="1.0" encoding="UTF-8" standalone="no"?><!DOCTYPE svg PUBLIC "-//W3C//DTD SVG 1.1//EN" "http://www.w3.org/Graphics/SVG/1.1/DTD/svg11.dtd"><svg width="100%" height="100%" viewBox="0 0 1302 1156" version="1.1" xmlns="http://www.w3.org/2000/svg" xmlns:xlink="http://www.w3.org/1999/xlink" xml:space="preserve" xmlns:serif="http://www.serif.com/" style="fill-rule:evenodd;clip-rule:evenodd;stroke-linejoin:round;stroke-miterlimit:2;"><rect id="Logo_White" x="-117.373" y="-190.149" width="1536" height="1536" style="fill:none;"/><path d="M873.794,984.336c-24.637,-46.301 -82.865,-184.137 -148.51,-200.301c-65.416,-16.107 -60.237,2.118 -142.586,-15.475c-39.234,-8.381 -55.32,-31.292 -107.892,-43.753c-70.116,-16.618 -220.59,87.975 -273.325,120.173c-11.431,6.979 -29.192,32.119 -34.307,45.215c-17.38,44.492 -67.611,66.503 -112.103,49.124c-44.492,-17.379 -66.504,-67.611 -49.124,-112.103c17.379,-44.492 47.969,-54.697 95.393,-48.988c24.654,2.967 46.537,7.827 64.383,9.006c60.583,4.003 240.315,-92.194 292.195,-140.29c33.335,-30.903 18.894,-61.661 22.467,-121.979c2.815,-47.523 34.365,-77.118 37.597,-121.418c3.397,-46.564 -4.894,-120.072 -27.018,-149.716c-29.451,-39.464 -47.836,-44.7 -65.472,-51.589c-59.572,-23.27 -87.069,-68.934 -63.799,-128.506c23.27,-59.571 90.527,-89.044 150.099,-65.774c59.571,23.27 83.955,88.782 65.774,150.099c-13.118,44.244 -25.272,37.072 -31.445,81.806c-5.307,38.45 21.852,121.215 54.505,149.936c39.183,34.464 51.277,8.108 120.153,41.259c58.869,28.334 32.859,32.29 114.962,69.006c64.169,28.696 201.014,-15.836 251.601,-11.415c27.772,2.428 43.742,-12.618 55.295,-34.007c22.7,-42.027 59.055,-52.789 103.547,-35.409c44.492,17.379 66.504,67.611 49.124,112.102c-17.379,44.492 -67.611,66.504 -112.103,49.125c-18.684,-7.299 -19.844,-28.715 -63.211,-39.02c-55.219,-13.122 -216.357,4.282 -249.146,48.47c-26.02,35.066 -26.579,36.713 -35.217,58.826c-11.308,28.949 -20.851,35.83 -26.971,88.763c-6.689,57.85 89.981,176.933 125.568,220.351c9.957,12.148 42.868,24.627 58.348,30.673c44.492,17.38 66.504,67.611 49.124,112.103c-17.379,44.492 -67.611,66.504 -112.103,49.124c-44.492,-17.379 -57.295,-65.041 -49.124,-112.102c3.806,-21.923 -1.88,-44.298 -6.679,-53.316Z" style="fill:#fafafa;"/></svg>