<?xml version="1.0" encoding="UTF-8" standalone="no"?><!DOCTYPE svg PUBLIC "-//W3C//DTD SVG 1.1//EN" "http://www.w3.org/Graphics/SVG/1.1/DTD/svg11.dtd"><svg width="100%" height="100%" viewBox="0 0 1536 1536" version="1.1" xmlns="http://www.w3.org/2000/svg" xmlns:xlink="http://www.w3.org/1999/xlink" xml:space="preserve" xmlns:serif="http://www.serif.com/" style="fill-rule:evenodd;clip-rule:evenodd;stroke-linejoin:round;stroke-miterlimit:2;"><path d="M991.167,1174.49c-24.637,-46.301 -82.865,-184.136 -148.511,-200.3c-65.415,-16.107 -60.236,2.117 -142.585,-15.475c-39.234,-8.382 -55.32,-31.293 -107.892,-43.753c-70.117,-16.619 -220.59,87.974 -273.325,120.173c-11.431,6.979 -29.192,32.118 -34.308,45.214c-17.379,44.492 -67.611,66.504 -112.103,49.125c-44.491,-17.38 -66.503,-67.611 -49.124,-112.103c17.38,-44.492 47.97,-54.698 95.393,-48.989c24.655,2.968 46.537,7.827 64.383,9.007c60.584,4.003 240.316,-92.194 292.196,-140.29c33.335,-30.904 18.893,-61.661 22.467,-121.98c2.815,-47.522 34.365,-77.118 37.596,-121.418c3.397,-46.563 -4.894,-120.072 -27.017,-149.716c-29.451,-39.463 -47.836,-44.699 -65.473,-51.589c-59.571,-23.269 -87.068,-68.933 -63.798,-128.505c23.27,-59.572 90.527,-89.044 150.098,-65.774c59.572,23.27 83.955,88.781 65.775,150.098c-13.119,44.244 -25.272,37.073 -31.446,81.806c-5.306,38.45 21.852,121.216 54.506,149.936c39.183,34.465 51.276,8.109 120.152,41.259c58.869,28.335 32.86,32.291 114.963,69.007c64.168,28.696 201.013,-15.836 251.6,-11.415c27.772,2.427 43.742,-12.619 55.295,-34.007c22.701,-42.027 59.056,-52.789 103.548,-35.41c44.491,17.379 66.503,67.611 49.124,112.103c-17.38,44.492 -67.611,66.503 -112.103,49.124c-18.684,-7.298 -19.844,-28.715 -63.212,-39.02c-55.218,-13.121 -216.356,4.282 -249.145,48.47c-26.021,35.066 -26.58,36.713 -35.217,58.827c-11.309,28.949 -20.851,35.83 -26.971,88.763c-6.689,57.85 89.98,176.933 125.568,220.351c9.956,12.147 42.867,24.626 58.347,30.673c44.492,17.379 66.504,67.611 49.125,112.103c-17.38,44.491 -67.611,66.503 -112.103,49.124c-44.492,-17.38 -57.295,-65.041 -49.124,-112.103c3.806,-21.923 -1.881,-44.298 -6.679,-53.316Z" style="fill:#86ba81;"/></svg>