<?xml version="1.0" encoding="utf-8"?>
<!-- Generator: Adobe Illustrator 27.5.0, SVG Export Plug-In . SVG Version: 6.00 Build 0)  -->
<svg version="1.1" id="Layer_1" xmlns="http://www.w3.org/2000/svg" xmlns:xlink="http://www.w3.org/1999/xlink" x="0px" y="0px"
	 viewBox="0 0 200 200" style="enable-background:new 0 0 200 200;" xml:space="preserve">
<g>
	<path d="M27.3,91l-1.9-6.2h-9.5L14,91H8l9.2-26.2H24L33.2,91H27.3z M24.1,80.2l-1.9-6.1c-0.1-0.4-0.3-0.9-0.5-1.6
		c-0.2-0.6-0.4-1.3-0.6-1.9c-0.2-0.7-0.4-1.2-0.5-1.7c-0.1,0.5-0.3,1.1-0.5,1.8c-0.2,0.7-0.4,1.4-0.6,2c-0.2,0.6-0.3,1.1-0.4,1.4
		l-1.9,6.1H24.1z"/>
	<path d="M58.1,77.7c0,2.9-0.6,5.4-1.7,7.4s-2.7,3.4-4.9,4.4c-2.1,1-4.7,1.5-7.7,1.5h-7.4V64.9h8.2c2.7,0,5.1,0.5,7.1,1.5
		s3.6,2.4,4.7,4.3C57.6,72.6,58.1,74.9,58.1,77.7z M52.4,77.9c0-1.9-0.3-3.5-0.8-4.7C51,71.9,50.1,71,49,70.4
		c-1.1-0.6-2.5-0.9-4.1-0.9H42v17h2.4c2.7,0,4.7-0.7,6-2.2C51.7,82.8,52.4,80.7,52.4,77.9z"/>
	<path d="M79.5,91l-1.9-6.2h-9.5L66.2,91h-6l9.2-26.2h6.8L85.4,91H79.5z M76.3,80.2l-1.9-6.1c-0.1-0.4-0.3-0.9-0.5-1.6
		c-0.2-0.6-0.4-1.3-0.6-1.9c-0.2-0.7-0.4-1.2-0.5-1.7c-0.1,0.5-0.3,1.1-0.5,1.8s-0.4,1.4-0.6,2c-0.2,0.6-0.3,1.1-0.4,1.4l-1.9,6.1
		H76.3z"/>
	<path d="M97,64.9c3.4,0,5.8,0.7,7.4,2.2c1.5,1.4,2.3,3.4,2.3,6c0,1.1-0.2,2.2-0.5,3.3c-0.3,1-0.9,2-1.7,2.8
		c-0.8,0.8-1.8,1.4-3.1,1.9c-1.3,0.5-2.9,0.7-4.8,0.7h-2.4V91h-5.5V64.9H97z M96.7,69.5h-2.5v7.7H96c1,0,1.9-0.1,2.7-0.4
		c0.8-0.3,1.3-0.7,1.8-1.3c0.4-0.6,0.6-1.3,0.6-2.2c0-1.3-0.4-2.2-1.1-2.9C99.3,69.8,98.2,69.5,96.7,69.5z"/>
	<path d="M121.7,91h-5.5V69.5h-7.1v-4.6h19.7v4.6h-7.1V91z"/>
	<path d="M132.8,91V64.9h5.5V91H132.8z"/>
	<path d="M165.3,64.9L156.4,91h-6l-8.8-26.1h5.6l4.9,15.5c0.1,0.3,0.2,0.8,0.4,1.5s0.4,1.5,0.6,2.3s0.3,1.5,0.4,2
		c0.1-0.5,0.2-1.2,0.4-2c0.2-0.8,0.4-1.6,0.6-2.3c0.2-0.7,0.3-1.2,0.4-1.5l4.9-15.5H165.3z"/>
	<path d="M183.6,91h-15V64.9h15v4.5h-9.5v5.7h8.8v4.5h-8.8v6.7h9.5V91z"/>
	<path d="M34.4,134.8h-7l-11.3-19.7h-0.2c0,0.8,0.1,1.6,0.1,2.5c0,0.8,0.1,1.7,0.1,2.5c0,0.8,0.1,1.7,0.1,2.5v12.3h-4.9v-26.1h7
		l11.3,19.5h0.1c0-0.8-0.1-1.6-0.1-2.4s-0.1-1.6-0.1-2.4c0-0.8-0.1-1.6-0.1-2.4v-12.3h5V134.8z"/>
	<path d="M56,134.8H41v-26.1h15v4.5h-9.5v5.7h8.8v4.5h-8.8v6.7H56V134.8z"/>
	<path d="M71.5,134.8H66v-21.5h-7.1v-4.6h19.7v4.6h-7.1V134.8z"/>
	<path d="M114.6,108.7l-6.6,26.1h-6.3l-3.5-13.7c-0.1-0.3-0.2-0.7-0.3-1.2c-0.1-0.5-0.2-1.1-0.4-1.8c-0.1-0.6-0.2-1.2-0.3-1.8
		c-0.1-0.6-0.2-1-0.2-1.3c0,0.3-0.1,0.8-0.2,1.3c-0.1,0.6-0.2,1.2-0.3,1.8s-0.2,1.2-0.4,1.8c-0.1,0.5-0.2,1-0.3,1.2l-3.5,13.7h-6.3
		l-6.6-26.1h5.4l3.3,14.2c0.1,0.4,0.2,0.9,0.3,1.5c0.1,0.6,0.2,1.2,0.4,1.9s0.2,1.3,0.3,1.9c0.1,0.6,0.2,1.1,0.2,1.6
		c0.1-0.5,0.1-1,0.2-1.6c0.1-0.6,0.2-1.2,0.3-1.8s0.2-1.2,0.3-1.7c0.1-0.5,0.2-1,0.3-1.3l3.8-14.6h5.2l3.8,14.6
		c0.1,0.3,0.2,0.8,0.3,1.3c0.1,0.5,0.2,1.1,0.3,1.8s0.2,1.2,0.3,1.8c0.1,0.6,0.2,1.1,0.2,1.6c0.1-0.6,0.2-1.3,0.3-2.2
		c0.1-0.8,0.3-1.7,0.5-2.5s0.3-1.6,0.5-2.1l3.3-14.2H114.6z"/>
	<path d="M141.5,121.7c0,2-0.2,3.8-0.7,5.5c-0.5,1.6-1.3,3.1-2.3,4.3c-1,1.2-2.3,2.1-3.9,2.7c-1.6,0.6-3.4,1-5.5,1s-4-0.3-5.5-1
		c-1.6-0.6-2.8-1.5-3.9-2.7s-1.8-2.6-2.3-4.3c-0.5-1.7-0.7-3.5-0.7-5.5c0-2.7,0.4-5,1.3-7c0.9-2,2.2-3.6,4.1-4.7s4.2-1.7,7-1.7
		c2.8,0,5.2,0.6,7,1.7s3.2,2.7,4.1,4.7C141.1,116.7,141.5,119,141.5,121.7z M122.5,121.7c0,1.8,0.2,3.4,0.7,4.7
		c0.5,1.3,1.2,2.3,2.1,3c1,0.7,2.2,1.1,3.8,1.1c1.6,0,2.8-0.4,3.8-1.1c1-0.7,1.7-1.7,2.1-3c0.4-1.3,0.7-2.9,0.7-4.7
		c0-2.7-0.5-4.9-1.5-6.5c-1-1.6-2.7-2.4-5-2.4c-1.6,0-2.8,0.4-3.8,1.1s-1.7,1.7-2.2,3C122.7,118.3,122.5,119.9,122.5,121.7z"/>
	<path d="M154.5,108.7c2.4,0,4.3,0.3,5.9,0.9s2.7,1.4,3.4,2.6c0.7,1.2,1.1,2.6,1.1,4.4c0,1.2-0.2,2.2-0.7,3.1
		c-0.5,0.9-1,1.6-1.8,2.3s-1.5,1.1-2.4,1.5l7.7,11.4h-6.1l-6.2-10h-2.9v10h-5.5v-26.1H154.5z M154.1,113.3h-1.7v7h1.8
		c1.8,0,3.1-0.3,3.9-0.9s1.2-1.5,1.2-2.7c0-1.2-0.4-2.1-1.3-2.6C157.2,113.5,155.9,113.3,154.1,113.3z"/>
	<path d="M192,134.8h-6.3l-6.8-11l-2.3,1.7v9.3H171v-26.1h5.5v11.9c0.4-0.5,0.7-1,1.1-1.5c0.4-0.5,0.7-1,1.1-1.5l7.1-8.9h6.1
		l-9.1,11.5L192,134.8z"/>
</g>
</svg>
